PathFileType	3	(X/Y/Z)	D:\Jess\Healthy\Labelled\HA21\20251027\SRRun01.trc
DataRate	CameraRate	NumFrames	NumMarkers	Units	OrigDataRate	OrigDataStartFrame	OrigNumFrames
250.0	250.0	6	33	mm	250.0	38000	4001
Frame#	Time	C7			T10			CLAV			LSHO			RSHO			LASIS			RASIS			LPSIS			RPSIS			LILCR			RILCR			LGTR			LTHI			LLTHI			LLEP			LPSH			LLSH			LDSH			LLMAL			LTOE			L5TH			LHEE			RGTR			RTHI			RLTHI			RLEP			RPSH			RLSH			RDSH			RLMAL			RTOE			R5TH			RHEE			
		X1	Y1	Z1	X2	Y2	Z2	X3	Y3	Z3	X4	Y4	Z4	X5	Y5	Z5	X6	Y6	Z6	X7	Y7	Z7	X8	Y8	Z8	X9	Y9	Z9	X10	Y10	Z10	X11	Y11	Z11	X12	Y12	Z12	X13	Y13	Z13	X14	Y14	Z14	X15	Y15	Z15	X16	Y16	Z16	X17	Y17	Z17	X18	Y18	Z18	X19	Y19	Z19	X20	Y20	Z20	X21	Y21	Z21	X22	Y22	Z22	X23	Y23	Z23	X24	Y24	Z24	X25	Y25	Z25	X26	Y26	Z26	X27	Y27	Z27	X28	Y28	Z28	X29	Y29	Z29	X30	Y30	Z30	X31	Y31	Z31	X32	Y32	Z32	X33	Y33	Z33	

2001	151.996	771.6702109842711	1504.585182808739	-866.124900965208	774.5103357123429	1281.366625106466	-821.6139224098721	813.956250903079	1440.502095883773	-1017.302970859524	635.6886241448535	1498.322656334934	-976.8173365388488	939.188435244322	1495.751050430227	-930.0867396924198	670.8438625677263	990.5612428175627	-966.8931425855111	907.9533341326476	1003.053210418983	-982.4025324840853	776.360854128179	1054.586191698696	-793.5572136688968	808.4968336700342	1055.677899627522	-794.242435785662	622.4035544975848	1077.857450248585	-933.708686810027	953.7253655811168	1090.507122998564	-890.1852290629159	608.582662596692	872.6289802880142	-863.8839473992524	679.1440566994274	692.2671207376859	-950.5406892529959	643.664201529024	641.2871393261817	-819.4124203733893	671.2103772475967	498.8970526522089	-786.661724318045	723.9171692949632	399.1226024792458	-806.2210825579316	680.8730669908763	342.8898840572839	-685.2502706854458	743.7090117247775	253.6128025552479	-698.7816512778094	724.2687220499976	163.6827338397154	-575.542267736795	739.0498017660916	58.11091544430077	-690.5571655195348	698.4232720448169	47.66788401772471	-627.7545461528639	786.3179340333168	158.9840306089642	-492.0872780179726	986.7092465194766	889.3236892782819	-930.810333526628	895.1770399895798	801.2656556722844	-1093.602445195631	956.72583101949	661.751762270389	-1044.212720521039	935.2683334292611	575.1993407288559	-1075.575551232372	883.6004048340629	465.1220351703076	-1069.017413776212	946.7266759876624	458.4905932100544	-954.2670030415476	890.2228328035591	368.7354427179879	-924.6121934664737	921.1567107514843	326.3661468769355	-792.6762107795026	912.9184841161372	172.2676848311989	-844.3992152792881	952.6178013734287	192.9249007750236	-794.1057807228915	866.9126733323703	365.8458910370573	-721.8840289906311	
2002	152	771.6535744575251	1507.797124383472	-866.3873336704422	773.7286905850785	1284.362450133043	-822.4135433907737	815.0254740779651	1444.003820625307	-1017.144178093747	636.6391624190996	1501.961993287287	-977.9552524152271	939.4520598083	1499.01518031014	-929.1243556792296	670.7795290028389	992.9625461909815	-968.4746193226522	907.5176867089948	1007.179101157082	-983.5404325269701	775.492982308862	1057.790676930523	-795.0444220006234	807.6309137253223	1059.06887362152	-795.5444088510602	622.3953319205266	1081.374843237928	-936.6561885318408	953.4412629236537	1094.669119622884	-890.9209606278807	608.735669366572	875.5417256041782	-863.999498313216	679.5650297275146	693.9705310541146	-947.4562604958902	643.6473891421283	645.2807006923487	-815.0351535281955	671.0597252894376	503.5562718799947	-779.2927878844823	723.5304641709249	403.4432303841494	-798.4414908614857	680.2519040762107	347.6983156287372	-677.2050750250991	742.3851486739992	257.726350699961	-691.1527095723866	722.7774540102619	167.6018512280414	-568.1119888478747	738.344824818037	58.45493882912911	-679.9806291833436	697.8507222465804	49.20707607590864	-617.2529004689695	784.5025101975712	165.4516001638848	-485.0488000945588	986.54721111098	894.6038170095235	-932.613169177414	894.7857946097804	806.2930881055872	-1095.17339653414	956.2183927098228	666.2331400732712	-1046.181090121052	934.7426812622833	578.9005653609212	-1077.523583651611	883.3338559935355	467.8824324258882	-1074.29353234672	946.1418160459493	456.827537530729	-959.7404604950311	889.5833418144884	365.9129289087426	-933.7254458363351	920.1556018958864	318.2694639853785	-803.3839826876206	911.6714917223094	166.0681974694632	-860.9434551146588	951.2347593001572	184.6511291834269	-809.7018737733182	865.8746122413716	355.185662210339	-731.2982353633884	
2003	152.004	771.6625206809066	1510.967900931635	-866.6532274460408	772.9692432696398	1287.325593953554	-823.2137197012507	816.0475882647249	1447.449504921928	-1016.983007943131	637.5993589038553	1505.560967038236	-979.0551394999345	939.7003482012871	1502.21763277173	-928.2560506030619	670.7096200334296	995.3056006338027	-970.0782949946406	906.9913671680529	1011.243799060164	-984.7409181186617	774.646801173753	1061.010830214223	-796.5915635451813	806.7810906241154	1062.475169227784	-796.9022757354396	622.4326546133447	1084.832918844285	-939.6571353704188	953.190627680397	1098.867268567261	-891.7279990143709	608.9061370395787	878.4812184145555	-864.0914674355388	679.9819482939582	695.7575856566025	-944.5109592678409	643.6280606999567	649.3373726211014	-810.8451068375806	670.9354450445933	508.3257410834418	-772.1986584190988	723.2021175783348	407.9008230603827	-790.968811655044	679.6420397333667	352.61257277775	-669.4705046122624	741.0639391913937	261.9442843433638	-683.8344681758966	721.2731973481236	171.656296273368	-561.0239476498964	737.6036396095559	58.9052475647041	-669.6345542139097	697.2372723375726	50.98762655479487	-606.9902123777767	782.6317087042299	172.1131666257304	-478.4018619876519	986.3608004711763	899.8375136921171	-934.4291204594894	894.4381602910313	811.1091470573434	-1096.720466882263	955.6777999644798	670.5059848297258	-1047.88039246897	934.230580100089	582.3508919592324	-1079.145285373652	883.1115287455983	470.4786046129726	-1079.310612847682	945.5547392580756	454.9607892730221	-965.1166122975796	888.9393607349124	363.0165529849763	-942.8448236432906	919.0914003276843	310.1108535600164	-814.3304064465872	910.4377076197716	160.0548487482203	-877.6795428057558	949.8326761981292	176.525606998801	-825.560039539394	864.7231519668032	344.3911505427557	-741.0900891303761	
2004	152.008	771.6950851483256	1514.077900484408	-866.9210400448447	772.2338715757182	1290.242404817599	-824.0095774146089	817.0197866408755	1450.819272109848	-1016.822926013113	638.5641019340912	1509.098396854107	-980.1147659229155	939.9338714404498	1505.340477207277	-927.4824359228918	670.6360473310234	997.5839135122557	-971.694825826426	906.3905502917942	1015.230723957187	-985.9953776832189	773.8224662488184	1064.238038290272	-798.1905283163128	805.9467963626242	1065.885185436671	-798.3082171889299	622.5199768462289	1088.221347141749	-942.6892693687226	952.9768680740266	1103.078552975817	-892.5975211842081	609.0847624114875	881.4363758758534	-864.168810246866	680.3983533043591	697.6090545657847	-941.7086941502445	643.6074715751413	653.4304924698007	-806.8541625225943	670.837865935608	513.1665539578945	-765.4063104734339	722.9377349328888	412.4580348769155	-783.8192316419553	679.0467012396442	357.6035958665537	-662.0626570097348	739.7624815950381	266.2473315305961	-676.8192976397027	719.7677735127686	175.8476014217563	-554.2564210865143	736.8314615714205	59.48706007343552	-659.5217017038379	696.5869679219327	53.02861621547923	-596.9683644735746	780.7203248331673	178.9508192083358	-472.1221470687392	986.1519283431855	904.9823786484585	-936.2283713354159	894.1468203809072	815.7033211914946	-1098.237415636303	955.0986988717882	674.5460169163409	-1049.297682322509	933.7343193974074	585.5264454519577	-1080.44269059013	882.9323206831733	472.8984881160827	-1084.066612491172	944.9714197348068	452.8857420767906	-970.4040936935304	888.294670443404	360.0551592988473	-951.9687259235445	917.9729000633669	301.9137413894642	-825.5208388005485	909.220795938199	154.2609964834534	-894.6048244983754	948.4183588784181	168.581328778001	-841.6827105223446	863.4698755717047	333.4895029898813	-751.2663730337475	
2005	152.012	771.7493490326648	1517.108705521659	-867.1895137797184	771.5246265245079	1293.100403639974	-824.7966921865842	817.9400314287418	1454.094591471722	-1016.668050525669	639.5277792864356	1512.554384578598	-981.1321128317113	940.1537351203356	1508.367211917267	-926.8030888126888	670.560941342314	999.7925902231166	-973.3150601774183	905.7331705539236	1019.124140980422	-987.2945090526953	773.0197699370141	1067.463704672577	-799.8325433911915	805.127299716382	1069.287211302518	-799.7539455129266	622.6595465425645	1091.530394222876	-945.7296329844929	952.8019090826731	1107.279053788363	-893.5220484543339	609.2616675830983	884.3953849115649	-864.2428545539329	680.8188542729669	699.5068656001763	-939.0539074518354	643.5870403125659	657.5324605466071	-803.0751899736912	670.7666151009458	518.0389117430598	-758.9428971306645	722.7409955503585	417.0761822387743	-777.006979635999	678.4688847771946	362.6430186824492	-654.9947764611003	738.498027906975	270.6167949154014	-670.0958839520061	718.274221705818	180.178031472284	-547.7821092387662	736.0346417450968	60.2277946763638	-649.6404961202384	695.9056828277226	55.3471109651444	-587.1847903356002	778.7861483048434	185.946146975678	-466.1789732215558	985.9229800831247	909.9964343375924	-937.982470876598	893.9237455110872	820.0637979335216	-1099.715390672295	954.4770816363643	678.3306236550209	-1050.419435607604	933.2564361116434	588.4049639680363	-1081.417434941133	882.7939455088938	475.132040365538	-1088.558831580766	944.3976509605874	450.6006831378101	-975.6107134980195	887.6527087764415	357.0396502106088	-961.093845083567	916.8097080252541	293.7036978273999	-836.9582114422363	908.0228646004291	148.7220256536579	-911.7146681018811	946.9976676221258	160.8529855254248	-858.0708154580191	862.1282072544396	322.5094098324408	-761.8298804019829	
2006	152.016	771.8234815257963	1520.04330966215	-867.4576888442805	770.8437812734527	1295.888298922119	-825.5710992482352	818.8070612616065	1457.258434050845	-1016.522953293408	640.4843783163237	1515.910496346673	-982.1054137949042	940.361526291222	1511.282881333154	-926.216589127847	670.4865752601577	1001.928171112624	-974.9301975019901	905.0380568567036	1022.908957824569	-988.6282994009143	772.238322359658	1070.679073639773	-801.5082189076022	804.3219190096502	1072.669345429742	-801.2307523725253	622.8511926635799	1094.750901252896	-948.7550587897745	952.6663071406729	1111.444391523595	-894.4952145109719	609.426865355006	887.3457505487281	-864.3266605982343	681.2490855552326	701.4344382900056	-936.552064948006	643.568138513205	661.6150372750166	-799.5221917980099	670.72061944148	522.9027649708123	-752.8352968374268	722.6133244901159	421.7157313723558	-770.5440605381705	677.9112598535953	367.7037189507754	-648.2768395302032	737.2872267536072	275.0347548957096	-663.6495861423882	716.8064015268966	184.6502288033492	-541.5688377926788	735.2205602444453	61.1561597443586	-639.9847961400963	695.2010395200519	57.95747871417601	-577.6322921218139	776.849499879861	193.0805599741784	-460.53612445657	985.6767966499494	914.8387680335073	-939.664849653532	893.7795332669349	824.1766732626884	-1101.142956819243	953.8108836250781	681.8389615834695	-1051.232296994913	932.7997721485762	590.9660754148589	-1082.070917887714	882.6930463153597	477.1713448899733	-1092.78402050494	943.8388756433631	448.1072179956487	-980.7431858420301	887.0165570712334	353.983120803656	-970.2149395545201	915.612091562557	285.508638479126	-848.6425751927035	906.8444880117613	143.4749341051291	-929.0015389581143	945.5754435479221	153.3767714701812	-874.7228458974489	860.7132837063759	311.4815607189655	-772.7790890908067	
